#!OML:ASF E:\Style4\Style4.ASF
:FULLY-SPECIFIED
:DEGREES
931
root 2.22042 17.6652 -0.437866 -1.97292 -16.7841 7.17756
lowerback 10.8256 0.0535086 2.28844
upperback 11.6182 -0.0546866 3.34408
thorax 6.20446 -0.0630776 2.23922
lowerneck 2.09886 1.21028 -2.8581
upperneck 2.2909 1.67768 -9.91354
head 0.42706 0.784415 -2.65024
rclavicle -7.95139e-015 1.27222e-014
rhumerus -43.2905 2.89722 -85.6288
rradius 79.9151
rwrist -1.99151
rhand 11.9796 -10.2913
rfingers 7.12502
rthumb 37.0015 -36.3554
lclavicle -7.95139e-015 1.27222e-014
lhumerus -31.2404 -19.3491 95.4167
lradius 48.1695
lwrist 16.8841
lhand 10.155 38.8876
lfingers 7.12502
lthumb 35.2733 65.3794
rfemur -17.2861 20.1682 4.09144
rtibia 33.9103
rfoot -18.2828 -11.9519
rtoes -17.8889
lfemur -7.75756 4.5682 -34.5981
ltibia 25.4943
lfoot -20.9725 14.8303
ltoes -7.11792
932
root 2.21997 17.6594 -0.418637 -2.16852 -17.5233 7.14704
lowerback 10.7047 -0.0655964 2.09113
upperback 11.6469 -0.232046 3.23307
thorax 6.30541 -0.163823 2.24174
lowerneck 2.1844 1.49773 -2.87892
upperneck 2.28987 2.05573 -9.96661
head 0.42775 0.974209 -2.66579
rclavicle 2.78299e-014 -6.52014e-014
rhumerus -42.9463 2.86061 -85.9808
rradius 79.6068
rwrist -1.90003
rhand 11.8892 -9.9831
rfingers 7.12502
rthumb 36.916 -36.0693
lclavicle 2.78299e-014 -6.52014e-014
lhumerus -31.3895 -18.9181 95.1214
lradius 48.2832
lwrist 16.861
lhand 10.2402 38.9954
lfingers 7.12502
lthumb 35.3542 65.468
rfemur -17.3543 20.403 4.16053
rtibia 33.9844
rfoot -18.2672 -11.5335
rtoes -18.1078
lfemur -7.59303 4.91605 -34.564
ltibia 25.5709
lfoot -21.2695 15.1479
ltoes -7.05429
933
root 2.21931 17.6531 -0.40096 -2.36426 -18.2338 7.14273
lowerback 10.6189 -0.21196 1.81388
upperback 11.6306 -0.446308 3.14242
thorax 6.33958 -0.289835 2.31111
lowerneck 2.47338 1.84258 -2.67034
upperneck 2.14642 2.49236 -10.3431
head 0.35901 1.20655 -2.83491
rclavicle 3.18055e-015 4.77083e-015
rhumerus -42.6564 2.96777 -86.331
rradius 79.2823
rwrist -1.98038
rhand 11.7317 -9.6453
rfingers 7.12502
rthumb 36.7669 -35.7697
lclavicle 3.18055e-015 4.77083e-015
lhumerus -31.6474 -18.3664 94.8745
lradius 48.4646
lwrist 16.7794
lhand 10.3439 39.0682
lfingers 7.12502
lthumb 35.4524 65.5174
rfemur -17.3786 20.5091 4.20324
rtibia 34.0413
rfoot -18.1987 -11.0015
rtoes -18.4476
lfemur -7.45022 5.21611 -34.5505
ltibia 25.6799
lfoot -21.5425 15.4608
ltoes -6.73283
934
root 2.21783 17.6508 -0.381539 -2.53483 -18.94 7.01979
lowerback 10.5449 -0.396471 1.5312
upperback 11.5939 -0.714249 3.15062
thorax 6.3506 -0.448127 2.49019
lowerneck 2.71434 2.22575 -2.70792
upperneck 2.0835 2.98311 -10.5957
head 0.323132 1.45943 -2.91888
rclavicle 2.94201e-014 -1.90833e-014
rhumerus -42.4278 3.33382 -86.6173
rradius 78.9421
rwrist -2.20132
rhand 11.2756 -9.1781
rfingers 7.12502
rthumb 36.3352 -35.4115
lclavicle 2.94201e-014 -1.90833e-014
lhumerus -31.8972 -17.5923 94.7006
lradius 48.5764
lwrist 16.753
lhand 10.3254 39.066
lfingers 7.12502
lthumb 35.4349 65.5194
rfemur -17.3004 20.6459 4.40437
rtibia 34.0479
rfoot -17.9888 -10.5678
rtoes -19.2154
lfemur -7.2845 5.53752 -34.3999
ltibia 25.8046
lfoot -21.9381 15.7676
ltoes -6.61891
935
root 2.21498 17.6494 -0.360383 -2.7004 -19.6582 6.77147
lowerback 10.4839 -0.584991 1.36675
upperback 11.5844 -0.983297 3.1829
thorax 6.38719 -0.599935 2.62857
lowerneck 2.70626 2.60641 -2.84652
upperneck 2.26566 3.5069 -10.7247
head 0.406143 1.70917 -2.93813
rclavicle -1.03368e-014 -3.18055e-014
rhumerus -42.1903 3.75574 -86.9109
rradius 78.5474
rwrist -2.29619
rhand 10.7636 -8.89287
rfingers 7.12502
rthumb 35.8503 -35.246
lclavicle -1.03368e-014 -3.18055e-014
lhumerus -32.0837 -16.9483 94.504
lradius 48.567
lwrist 16.8783
lhand 10.2808 38.9422
lfingers 7.12502
lthumb 35.3926 65.4057
rfemur -17.1896 20.9107 4.76421
rtibia 34.0293
rfoot -17.9067 -10.2172
rtoes -19.6442
lfemur -7.06026 5.89416 -34.1184
ltibia 25.8995
lfoot -22.2067 16.1076
ltoes -6.7283
936
root 2.21048 17.6482 -0.339343 -2.8659 -20.3371 6.58479
lowerback 10.3743 -0.701986 1.28894
upperback 11.5892 -1.14928 3.11044
thorax 6.45879 -0.68808 2.6016
lowerneck 2.67606 2.89046 -2.71657
upperneck 2.51355 3.91791 -10.8626
head 0.514569 1.90091 -3.00747
rclavicle -2.54444e-014 4.6118e-014
rhumerus -41.9289 3.78985 -87.2396
rradius 78.1744
rwrist -2.30381
rhand 10.671 -9.03481
rfingers 7.12502
rthumb 35.7625 -35.4093
lclavicle -2.54444e-014 4.6118e-014
lhumerus -32.3351 -16.8104 94.2569
lradius 48.6469
lwrist 17.1299
lhand 10.1936 38.79
lfingers 7.12502
lthumb 35.3099 65.2731
rfemur -17.1215 21.1145 5.04903
rtibia 33.9826
rfoot -17.9427 -9.83143
rtoes -19.7504
lfemur -6.84886 6.1764 -33.9029
ltibia 25.9786
lfoot -22.4791 16.4061
ltoes -6.57122
937
root 2.20378 17.6474 -0.320594 -3.10396 -20.9941 6.67993
lowerback 10.2509 -0.803256 0.910028
upperback 11.5905 -1.30646 2.96947
thorax 6.53798 -0.790721 2.66968
lowerneck 2.61493 3.14832 -2.41089
upperneck 2.77073 4.30501 -11.2034
head 0.641297 2.08011 -3.1775
rclavicle -1.51076e-014 5.40694e-014
rhumerus -41.6237 3.77287 -87.565
rradius 77.7987
rwrist -2.30625
rhand 10.7238 -9.14949
rfingers 7.12502
rthumb 35.8125 -35.5119
lclavicle -1.51076e-014 5.40694e-014
lhumerus -32.6018 -16.4197 93.9842
lradius 48.9259
lwrist 17.1578
lhand 10.1806 38.8963
lfingers 7.12502
lthumb 35.2977 65.3823
rfemur -17.0916 21.204 5.02304
rtibia 33.9369
rfoot -17.9331 -9.30273
rtoes -19.9385
lfemur -6.65741 6.42806 -33.9698
ltibia 26.0544
lfoot -22.8925 16.7294
ltoes -6.65734
938
root 2.19586 17.6463 -0.304611 -3.26213 -21.6997 6.67352
lowerback 10.178 -0.885572 0.589899
upperback 11.5619 -1.43437 2.88083
thorax 6.55707 -0.876645 2.75923
lowerneck 2.4223 3.39082 -2.11935
upperneck 3.07831 4.68686 -11.5891
head 0.811575 2.2494 -3.35836
rclavicle 3.57812e-014 -2.06736e-014
rhumerus -41.2776 3.82731 -87.8533
rradius 77.3115
rwrist -2.42942
rhand 10.7021 -9.10812
rfingers 7.12502
rthumb 35.792 -35.4755
lclavicle 3.57812e-014 -2.06736e-014
lhumerus -32.76 -15.8708 93.7472
lradius 49.1342
lwrist 17.0089
lhand 10.1677 39.0556
lfingers 7.12502
lthumb 35.2854 65.5446
rfemur -17.1427 21.3752 5.09091
rtibia 33.9071
rfoot -17.8802 -8.85537
rtoes -20.3119
lfemur -6.52746 6.70777 -33.9234
ltibia 26.1095
lfoot -23.1994 17.1266
ltoes -6.90422
939
root 2.18764 17.6438 -0.291178 -3.37929 -22.3986 6.58753
lowerback 10.1656 -0.961758 0.374943
upperback 11.4947 -1.54519 2.79648
thorax 6.49726 -0.945333 2.79461
lowerneck 2.32254 3.62481 -1.97316
upperneck 3.33242 5.03859 -11.7534
head 0.939493 2.4084 -3.43778
rclavicle -5.1684e-014 -4.92986e-014
rhumerus -40.9953 3.92216 -88.1524
rradius 76.8282
rwrist -2.652
rhand 10.5313 -9.02722
rfingers 7.12502
rthumb 35.6301 -35.4338
lclavicle -5.1684e-014 -4.92986e-014
lhumerus -32.98 -15.363 93.5144
lradius 49.2728
lwrist 16.8251
lhand 10.1847 39.1527
lfingers 7.12502
lthumb 35.3015 65.6378
rfemur -17.2006 21.5439 5.2424
rtibia 33.8915
rfoot -17.8243 -8.4184
rtoes -20.4143
lfemur -6.41116 7.0079 -33.7936
ltibia 26.1465
lfoot -23.3137 17.5445
ltoes -7.38172
940
root 2.17777 17.6403 -0.276993 -3.54166 -23.0312 6.5327
lowerback 10.1472 -1.06572 0.0860893
upperback 11.4401 -1.69764 2.71778
thorax 6.46048 -1.04075 2.87924
lowerneck 2.30746 3.88099 -1.9358
upperneck 3.54805 5.40476 -11.7652
head 1.03405 2.57873 -3.44523
rclavicle 1.59028e-014 -1.11319e-014
rhumerus -40.7593 4.10443 -88.4391
rradius 76.3951
rwrist -2.90764
rhand 10.1489 -9.03923
rfingers 7.12502
rthumb 35.2675 -35.5324
lclavicle 1.59028e-014 -1.11319e-014
lhumerus -33.2346 -14.6939 93.2517
lradius 49.4652
lwrist 16.6131
lhand 10.3845 39.2555
lfingers 7.12502
lthumb 35.4909 65.6955
rfemur -17.188 21.6118 5.3868
rtibia 33.8696
rfoot -17.7757 -7.96992
rtoes -20.7118
lfemur -6.25483 7.25598 -33.6932
ltibia 26.2138
lfoot -23.5392 17.8989
ltoes -7.31908
941
root 2.1658 17.6385 -0.259665 -3.72773 -23.7376 6.44977
lowerback 10.1189 -1.17027 -0.284147
upperback 11.3792 -1.85825 2.69416
thorax 6.42997 -1.1491 3.06803
lowerneck 2.34898 4.16379 -1.98788
upperneck 3.75821 5.79915 -11.7476
head 1.11498 2.7639 -3.42663
rclavicle -1.43125e-014 -6.36111e-015
rhumerus -40.5924 4.48331 -88.6695
rradius 76.0189
rwrist -3.14489
rhand 9.58121 -9.09707
rfingers 7.12502
rthumb 34.729 -35.716
lclavicle -1.43125e-014 -6.36111e-015
lhumerus -33.5419 -14.0891 93.1168
lradius 49.5899
lwrist 16.5376
lhand 10.3813 39.17
lfingers 7.12502
lthumb 35.4879 65.6107
rfemur -17.1482 21.7316 5.58662
rtibia 33.8458
rfoot -17.7779 -7.47194
rtoes -20.984
lfemur -6.04489 7.55391 -33.5568
ltibia 26.2918
lfoot -23.8208 18.2491
ltoes -7.22409
942
root 2.1528 17.6367 -0.244123 -3.85315 -24.4497 6.33634
lowerback 9.96026 -1.28953 -0.615682
upperback 11.3427 -2.03822 2.66175
thorax 6.50047 -1.26469 3.22289
lowerneck 2.5364 4.47214 -2.00574
upperneck 3.77478 6.19977 -11.7759
head 1.11109 2.96662 -3.43453
rclavicle -7.15625e-015 3.18055e-015
rhumerus -40.3351 4.83986 -88.8753
rradius 75.6219
rwrist -3.32599
rhand 9.31091 -9.12554
rfingers 7.12502
rthumb 34.4725 -35.8032
lclavicle -7.15625e-015 3.18055e-015
lhumerus -33.797 -13.5785 92.9875
lradius 49.6781
lwrist 16.5386
lhand 10.2522 39.1689
lfingers 7.12502
lthumb 35.3655 65.6388
rfemur -17.1721 21.8575 5.79875
rtibia 33.8172
rfoot -17.7881 -6.91883
rtoes -21.0314
lfemur -5.88205 7.90826 -33.3791
ltibia 26.3583
lfoot -24.0847 18.5001
ltoes -7.39251
